<?xml version="1.0" standalone="no"?>
<!DOCTYPE svg PUBLIC "-//W3C//DTD SVG 20010904//EN"
 "http://www.w3.org/TR/2001/REC-SVG-20010904/DTD/svg10.dtd">
<svg version="1.0" xmlns="http://www.w3.org/2000/svg"
 width="512.000000pt" height="512.000000pt" viewBox="0 0 512.000000 512.000000"
 preserveAspectRatio="xMidYMid meet">
<metadata>
Created by potrace 1.14, written by Peter Selinger 2001-2017
</metadata>
<g transform="translate(0.000000,512.000000) scale(0.100000,-0.100000)"
fill="#000000" stroke="none">
<path d="M2488 5086 c-38 -18 -68 -32 -68 -29 0 2 -19 -7 -42 -21 -24 -14 -47
-26 -53 -27 -16 -4 -120 -52 -125 -58 -3 -3 -9 -6 -15 -7 -5 0 -49 -19 -98
-42 -48 -23 -92 -42 -97 -42 -6 0 -10 -4 -10 -10 0 -6 -3 -9 -7 -8 -11 2 -97
-37 -446 -201 -59 -28 -112 -51 -117 -51 -6 0 -10 -4 -10 -8 0 -5 -6 -9 -13
-9 -7 0 -36 -12 -66 -26 -29 -15 -59 -27 -67 -27 -8 0 -14 -4 -14 -10 0 -5 -9
-10 -20 -10 -11 0 -20 -5 -20 -12 0 -6 -3 -9 -6 -5 -3 3 -21 -3 -40 -14 -19
-10 -41 -19 -49 -19 -8 0 -15 -4 -15 -10 0 -5 -5 -10 -11 -10 -10 0 -50 -18
-199 -88 -30 -14 -57 -27 -60 -27 -3 -1 -41 -18 -85 -39 -125 -59 -149 -70
-158 -68 -4 1 -10 -5 -13 -13 -3 -8 -10 -13 -14 -10 -5 3 -25 -4 -44 -16 -20
-11 -36 -17 -36 -12 0 4 -4 3 -8 -2 -4 -6 -90 -49 -192 -95 -102 -46 -188 -88
-191 -93 -3 -5 -10 -9 -15 -8 -5 0 -20 -3 -32 -6 -49 -12 2 -19 138 -18 78 0
144 -3 147 -8 3 -4 6 -88 6 -186 l1 -178 33 3 c19 1 33 -3 33 -9 0 -8 4 -7 12
1 7 7 17 8 30 1 10 -5 18 -6 18 -1 0 4 16 8 35 8 31 0 35 -3 36 -26 0 -14 1
-115 2 -225 l2 -200 150 0 150 -1 3 -1053 2 -1053 -37 2 c-21 1 -90 2 -153 1
l-116 -1 -1 -262 c-1 -145 -2 -271 -2 -281 -1 -16 -9 -18 -59 -17 -31 1 -98 1
-147 1 l-90 -1 0 -223 0 -222 2335 -3 2335 -2 1 224 0 224 -23 5 c-13 2 -26 0
-29 -5 -3 -4 -10 -5 -16 -1 -7 3 -60 6 -120 5 l-108 -1 -1 72 c-1 39 -1 166
-2 282 l0 210 -153 -3 -154 -3 0 1051 c0 833 3 1050 13 1051 6 1 75 2 152 3
l140 1 2 213 c1 118 4 219 6 226 5 13 55 15 75 3 6 -5 12 -5 12 0 0 4 20 8 45
8 25 0 45 -4 45 -9 0 -5 3 -6 7 -2 4 4 9 87 10 184 2 97 5 182 7 187 2 7 59
11 154 10 83 0 149 2 147 5 -2 3 -39 21 -82 40 -43 19 -79 37 -81 41 -2 5 -9
6 -16 3 -7 -3 -19 2 -26 10 -7 9 -16 13 -21 10 -5 -3 -9 0 -9 6 0 6 -4 8 -10
5 -5 -3 -10 -1 -10 4 0 6 -6 11 -12 11 -7 0 -50 18 -96 40 -46 22 -87 40 -92
40 -6 0 -10 4 -10 8 0 5 -6 9 -12 9 -7 0 -53 19 -103 43 -187 88 -220 104
-225 105 -3 0 -31 13 -62 28 -152 71 -174 81 -188 83 -8 2 -16 8 -18 13 -2 6
-9 11 -16 11 -7 0 -30 8 -52 19 -111 53 -191 89 -211 96 -13 3 -23 11 -23 16
0 5 -6 9 -14 9 -8 0 -54 19 -103 42 -48 23 -91 41 -95 40 -5 -1 -8 3 -8 8 0 5
-3 9 -7 8 -5 -1 -38 13 -76 30 -37 18 -72 32 -77 32 -6 0 -10 5 -10 10 0 6 -3
9 -7 8 -5 -1 -18 3 -30 10 -13 7 -23 10 -23 7 0 -4 -12 2 -27 13 -16 11 -31
20 -36 21 -4 0 -20 7 -35 15 -15 8 -36 16 -47 18 -11 1 -22 6 -25 9 -5 6 -79
42 -200 97 -36 17 -101 47 -145 68 -44 21 -82 39 -85 39 -3 1 -31 13 -64 28
-32 15 -59 27 -60 27 0 0 -31 -15 -68 -34z"/>
</g>
</svg>
